<?xml version="1.0" standalone="no"?>
<!DOCTYPE svg PUBLIC "-//W3C//DTD SVG 1.1//EN" "http://www.w3.org/Graphics/SVG/1.1/DTD/svg11.dtd" >
<svg xmlns="http://www.w3.org/2000/svg">
<metadata></metadata>
<defs>
<font id="pennaregular" horiz-adv-x="548" >
<font-face units-per-em="2048" ascent="1634" descent="-414" />
<missing-glyph horiz-adv-x="362" />
<glyph horiz-adv-x="0" />
<glyph horiz-adv-x="682" />
<glyph unicode=" "  horiz-adv-x="362" />
<glyph unicode="&#x09;" horiz-adv-x="362" />
<glyph unicode="&#xa0;" horiz-adv-x="362" />
<glyph unicode="!" horiz-adv-x="335" d="M135 16q0 -13 9.5 -22.5t23.5 -9.5t23.5 9.5t9.5 22.5q0 14 -9.5 23.5t-23.5 9.5t-23.5 -9.5t-9.5 -23.5zM150 1487h36l-6 -1221h-24z" />
<glyph unicode="&#x22;" horiz-adv-x="260" d="M59 1282h39l-8 -340h-22zM162 1282h39l-8 -340h-23z" />
<glyph unicode="#" horiz-adv-x="598" d="M82 143v23h108l46 147h-105v23h111l53 170l22 -6l-51 -164h123l53 170l23 -6l-51 -164h102v-23h-108l-46 -147h105v-23h-111l-55 -184l-22 6l53 178h-123l-55 -184l-23 6l53 178h-102zM215 166h123l45 147h-123z" />
<glyph unicode="$" horiz-adv-x="419" d="M84 74l16 22q54 -45 109 -45q43 0 71.5 21t28.5 59q0 33 -22.5 55.5t-79.5 40.5q-115 31 -115 121q0 48 31.5 77t79.5 34v82h24v-82q70 -3 107 -56l-21 -18q-22 25 -43 36t-53 11q-41 0 -66.5 -20.5t-25.5 -57.5q0 -40 24.5 -63t75.5 -37q117 -33 117 -121q0 -45 -35 -75 t-82 -33v-86h-24v86q-69 3 -117 49z" />
<glyph unicode="%" horiz-adv-x="700" d="M90 371q0 62 35 93.5t84 31.5t84 -31.5t35 -93.5t-35 -93.5t-84 -31.5t-84 31.5t-35 93.5zM121 371q0 -51 24 -77t64 -26t64 26t24 77t-24 76.5t-64 25.5t-64 -25.5t-24 -76.5zM178 -2l324 498l20 -15l-323 -497zM373 109q0 62 35 93t84 31t83.5 -31t34.5 -93 t-34.5 -93.5t-83.5 -31.5t-84 31.5t-35 93.5zM403 109q0 -51 24.5 -77t64.5 -26t64 26t24 77t-24 76.5t-64 25.5t-64.5 -26t-24.5 -76z" />
<glyph unicode="&#x26;" horiz-adv-x="991" d="M156 168q0 76 46.5 138.5t164.5 137.5q-162 137 -162 256q0 100 62 154.5t155 54.5t154 -56t61 -140q0 -70 -54.5 -136t-164.5 -135l293 -260l172 164l20 -18l-170 -164l191 -164h-47l-166 139q-93 -87 -162 -121t-164 -34q-94 0 -161.5 49t-67.5 135zM190 174 q0 -80 61 -122t146 -42q77 0 145.5 34.5t147.5 115.5l-305 266q-112 -74 -153.5 -129.5t-41.5 -122.5zM240 707q0 -122 157 -246q100 62 152.5 122.5t52.5 129.5q0 72 -51 121t-129 49q-83 0 -132.5 -48.5t-49.5 -127.5z" />
<glyph unicode="'" horiz-adv-x="157" d="M59 1282h39l-8 -340h-22z" />
<glyph unicode="(" horiz-adv-x="780" d="M197 700q0 283 121.5 527.5t334.5 406.5l15 -20q-197 -147 -320 -387t-123 -527q0 -288 123 -526.5t320 -386.5l-15 -20q-213 163 -334.5 406.5t-121.5 526.5z" />
<glyph unicode=")" horiz-adv-x="780" d="M113 -213q197 148 319.5 386.5t122.5 526.5q0 287 -123 527t-319 387l14 20q213 -163 335 -407t122 -527q0 -282 -122 -526t-335 -407z" />
<glyph unicode="*" horiz-adv-x="651" d="M141 158l162 86l-162 86l19 30l155 -98l-8 184h37l-8 -184l156 98l18 -30l-162 -86l162 -86l-18 -31l-156 98l8 -184h-37l8 184l-155 -98z" />
<glyph unicode="+" horiz-adv-x="954" d="M203 291v22h262v297h24v-297h263v-22h-263v-297h-24v297h-262z" />
<glyph unicode="," horiz-adv-x="204" d="M31 -133q31 97 43 176l45 -6q-26 -100 -62 -178z" />
<glyph unicode="-" horiz-adv-x="722" d="M203 291v22h317v-22h-317z" />
<glyph unicode="." horiz-adv-x="204" d="M70 16q0 14 9.5 23.5t22.5 9.5q14 0 23.5 -9.5t9.5 -23.5q0 -13 -9.5 -22.5t-23.5 -9.5t-23 9t-9 23z" />
<glyph unicode="/" horiz-adv-x="862" d="M-12 -219l864 1849l22 -10l-864 -1849z" />
<glyph unicode="0" d="M74 242q0 120 53 189t147 69q95 0 148 -69.5t53 -188.5t-53 -188.5t-148 -69.5q-94 0 -147 69t-53 189zM109 242q0 -100 42 -166t123 -66t123.5 66t42.5 166t-42.5 165.5t-123.5 65.5t-123 -65.5t-42 -165.5z" />
<glyph unicode="1" d="M133 348l223 139h25v-487h-33v446l-201 -120z" />
<glyph unicode="2" d="M76 0v29l186 137q73 55 106 94.5t33 83.5q0 54 -38 88.5t-99 34.5q-46 0 -78.5 -17.5t-66.5 -58.5l-23 19q64 86 168 86q75 0 122.5 -41.5t47.5 -106.5q0 -53 -36 -98t-117 -107l-160 -114h328v-29h-373z" />
<glyph unicode="3" d="M59 -96l15 24q61 -39 133 -39q82 0 140.5 44.5t58.5 113.5q0 76 -58.5 116.5t-177.5 39.5l-12 24l213 224h-273v28h314v-28l-213 -222q113 0 176 -47t63 -133q0 -87 -69.5 -136.5t-163.5 -49.5q-85 0 -146 41z" />
<glyph unicode="4" d="M63 74v24l263 389h43v-385h110v-28h-110v-195h-33v195h-273zM102 102h234v349z" />
<glyph unicode="5" d="M94 -96l12 24q68 -39 134 -39q76 0 125 41.5t49 106.5q0 71 -44 113.5t-134 42.5q-50 0 -105 -27l-10 6v307h328v-28h-295v-248q46 16 94 16q97 0 147.5 -52t50.5 -128q0 -80 -60.5 -128t-147.5 -48q-80 0 -144 41z" />
<glyph unicode="6" d="M84 180q0 123 97 245t225 193l16 -26q-81 -41 -163 -126t-124 -177q56 73 158 73q84 0 138 -52.5t54 -135.5q0 -79 -60 -134.5t-140 -55.5q-93 0 -147 54t-54 142zM119 180q0 -71 42.5 -119.5t123.5 -48.5q69 0 117.5 45t48.5 113q0 74 -43.5 119t-116.5 45 q-70 0 -121 -39t-51 -115z" />
<glyph unicode="7" d="M82 451v28h395v-26l-317 -590l-27 14l305 574h-356z" />
<glyph unicode="8" d="M84 139q0 58 37.5 99t99.5 53q-57 18 -90 60.5t-33 101.5q0 72 50.5 117.5t130.5 45.5q85 0 132.5 -47t47.5 -114q0 -63 -35 -103.5t-96 -56.5q71 -14 104 -56.5t33 -99.5q0 -74 -52 -114.5t-139 -40.5q-86 0 -138 41.5t-52 113.5zM119 141q0 -61 43.5 -96t111.5 -35 q71 0 113.5 34t42.5 97q0 60 -40 96.5t-118 43.5q-153 -24 -153 -140zM133 459q0 -66 40.5 -107t105.5 -47q66 6 105.5 44t39.5 102q0 59 -37 99t-108 40q-66 0 -106 -35.5t-40 -95.5z" />
<glyph unicode="9" d="M66 305q0 79 59 135t141 56q92 0 146.5 -54.5t54.5 -142.5q0 -123 -97 -245t-225 -193l-16 26q81 41 163 126t124 177q-56 -73 -158 -73q-84 0 -138 52.5t-54 135.5zM100 309q0 -74 43.5 -119t116.5 -45q70 0 121 39t51 115q0 71 -42 119.5t-124 48.5q-69 0 -117.5 -45 t-48.5 -113z" />
<glyph unicode=":" horiz-adv-x="204" d="M70 16q0 14 9.5 23.5t22.5 9.5q14 0 23.5 -9.5t9.5 -23.5q0 -13 -9.5 -22.5t-23.5 -9.5t-23 9t-9 23zM70 463q0 14 9.5 23.5t22.5 9.5q14 0 23.5 -10t9.5 -23t-9.5 -23t-23.5 -10q-13 0 -22.5 9.5t-9.5 23.5z" />
<glyph unicode=";" horiz-adv-x="204" d="M31 -133q31 97 43 176l45 -6q-26 -100 -62 -178zM72 463q0 14 9.5 23.5t22.5 9.5q14 0 23.5 -10t9.5 -23t-9.5 -23t-23.5 -10q-13 0 -22.5 9.5t-9.5 23.5z" />
<glyph unicode="&#x3c;" horiz-adv-x="1073" d="M156 690v21l778 780l16 -18l-768 -773l768 -772l-16 -18z" />
<glyph unicode="=" horiz-adv-x="954" d="M203 186v23h549v-23h-549zM203 393v23h549v-23h-549z" />
<glyph unicode="&#x3e;" horiz-adv-x="1073" d="M123 -72l768 772l-768 773l16 18l779 -780v-21l-779 -780z" />
<glyph unicode="?" horiz-adv-x="952" d="M57 1343q83 77 182.5 118.5t200.5 41.5q111 0 204 -44.5t150.5 -132.5t57.5 -204q0 -115 -64 -220t-202 -243q-75 -75 -106 -144t-31 -173v-76h-33v60q0 126 34 199.5t105 144.5q143 144 203.5 240t60.5 196q0 165 -104.5 264.5t-282.5 99.5q-186 0 -354 -151zM399 16 q0 14 9.5 23.5t23.5 9.5t23.5 -9.5t9.5 -23.5q0 -13 -9.5 -22.5t-23.5 -9.5t-23.5 9.5t-9.5 22.5z" />
<glyph unicode="@" horiz-adv-x="1236" d="M90 193q0 251 156 408t399 157q101 0 184.5 -29t138 -76t92 -107.5t54 -121t16.5 -119.5q0 -148 -69 -220.5t-172 -72.5q-138 0 -141 125q-25 -58 -71 -90.5t-104 -32.5q-80 0 -129 47t-49 129q0 114 73 194.5t177 80.5q91 0 162 -23l-29 -268q-15 -139 115 -139 q90 0 149.5 70t59.5 196q0 56 -14.5 113t-49.5 115.5t-85.5 103.5t-130.5 73.5t-177 28.5q-154 0 -275 -71.5t-186 -192.5t-65 -268q0 -103 40.5 -192.5t108.5 -150.5t156 -95.5t182 -34.5q244 0 445 174l14 -17q-195 -180 -465 -180q-98 0 -189.5 34.5t-163 96.5 t-114.5 154.5t-43 200.5zM430 197q0 -73 39.5 -113.5t105.5 -40.5q73 0 121 50t54 134l20 195q-62 16 -125 16q-91 0 -153 -73t-62 -168z" />
<glyph unicode="A" horiz-adv-x="1181" d="M57 0l518 1262h29l520 -1262h-39l-182 449h-627l-182 -449h-37zM291 479h600l-301 742z" />
<glyph unicode="B" horiz-adv-x="903" d="M133 0v1262h299q172 0 289 -114.5t117 -293.5q0 -136 -87.5 -239.5t-207.5 -137.5q119 0 185.5 -72.5t66.5 -166.5q0 -103 -69.5 -170.5t-170.5 -67.5h-422zM166 31h389q86 0 146.5 58t60.5 147q0 91 -62 152t-168 61h-366v-418zM166 479h256q150 0 265.5 116t115.5 259 q0 162 -107.5 269.5t-263.5 107.5h-266v-752z" />
<glyph unicode="C" horiz-adv-x="1374" d="M90 631q0 175 86.5 324t235.5 236t325 87q332 0 523 -256l-25 -23q-79 112 -203.5 180t-294.5 68q-166 0 -307 -83t-223 -225t-82 -308t82 -308.5t223 -225.5t307 -83q155 0 286.5 68t205.5 170l22 -21q-71 -98 -205.5 -172.5t-308.5 -74.5q-176 0 -325 86.5 t-235.5 235.5t-86.5 325z" />
<glyph unicode="D" horiz-adv-x="1216" d="M133 0v1262h367q132 0 251 -49t206 -132.5t138.5 -201t51.5 -248.5q0 -176 -87 -321t-235.5 -227.5t-324.5 -82.5h-367zM166 31h334q167 0 307.5 79t222.5 217t82 304t-82 304t-222.5 217t-307.5 79h-334v-1200z" />
<glyph unicode="E" horiz-adv-x="792" d="M133 0v1253h565v-30h-532v-744h471v-30h-471v-418h553v-31h-586z" />
<glyph unicode="F" horiz-adv-x="702" d="M133 0v1253h565v-30h-532v-744h471v-30h-471v-449h-33z" />
<glyph unicode="G" horiz-adv-x="1341" d="M68 631q0 175 86.5 324t235.5 236t325 87q331 0 522 -256l-25 -23q-79 112 -203 180t-294 68q-166 0 -307.5 -83t-223.5 -225t-82 -308q0 -83 22 -163t61.5 -147.5t96.5 -124.5t124 -97t146.5 -62.5t162.5 -22.5q149 0 276.5 63.5t204.5 160.5v211h-283v30h316v-248 q-71 -98 -205.5 -172.5t-308.5 -74.5q-176 0 -325 86.5t-235.5 235.5t-86.5 325z" />
<glyph unicode="H" horiz-adv-x="1179" d="M133 0v1262h33v-783h848v783h33v-1262h-33v449h-848v-449h-33z" />
<glyph unicode="I" horiz-adv-x="299" d="M133 0v1262h33v-1262h-33z" />
<glyph unicode="J" horiz-adv-x="688" d="M18 182l27 15q75 -183 246 -183q97 0 170.5 70t73.5 174v1004h32v-998q0 -117 -81.5 -198.5t-198.5 -81.5q-94 0 -168 53.5t-101 144.5z" />
<glyph unicode="K" horiz-adv-x="899" d="M133 0v1262h33v-766l674 766h41l-594 -674l590 -588h-50l-563 563l-98 -110v-453h-33z" />
<glyph unicode="L" horiz-adv-x="753" d="M133 0v1262h33v-1231h553v-31h-586z" />
<glyph unicode="M" horiz-adv-x="1456" d="M133 0v1262h41l555 -789l553 789h41v-1262h-33v1217l-549 -779h-26l-549 779v-1217h-33z" />
<glyph unicode="N" horiz-adv-x="1179" d="M133 0v1262h45l836 -1223v1223h33v-1262h-46l-835 1217v-1217h-33z" />
<glyph unicode="O" horiz-adv-x="1433" d="M70 631q0 175 86.5 324t235.5 236t325 87q175 0 324 -87t236 -236t87 -324q0 -176 -87 -325t-236 -235.5t-324 -86.5q-176 0 -325 86.5t-235.5 235.5t-86.5 325zM104 631q0 -83 22 -163t61.5 -147.5t96.5 -124.5t124 -97t146.5 -62.5t162.5 -22.5q166 0 307 83t223 225.5 t82 308.5t-82 308t-223 225t-307 83t-307.5 -83t-223.5 -225t-82 -308z" />
<glyph unicode="P" horiz-adv-x="958" d="M133 0v1262h381q169 0 287.5 -119.5t118.5 -288.5q0 -168 -119 -286.5t-287 -118.5h-348v-449h-33zM166 479h348q155 0 263 107.5t108 267.5q0 161 -108 269t-263 108h-348v-752z" />
<glyph unicode="Q" horiz-adv-x="1433" d="M70 631q0 175 86.5 324t235.5 236t325 87q175 0 324 -87t236 -236t87 -324q0 -130 -50.5 -249t-135.5 -205.5t-202.5 -138.5t-246.5 -54v-21q0 -116 71.5 -186t170.5 -70q84 0 139 43l16 -24q-71 -50 -159 -50q-116 0 -193.5 81.5t-77.5 199.5v27q-171 5 -315 92.5 t-227.5 234.5t-83.5 320zM104 631q0 -83 22 -163t61.5 -147.5t96.5 -124.5t124 -97t146.5 -62.5t162.5 -22.5q166 0 307 83t223 225.5t82 308.5t-82 308t-223 225t-307 83t-307.5 -83t-223.5 -225t-82 -308z" />
<glyph unicode="R" horiz-adv-x="950" d="M133 0v1262h381q169 0 287.5 -119.5t118.5 -288.5q0 -168 -119 -286.5t-287 -118.5l371 -449h-47l-392 479h68q155 0 263 107.5t108 267.5q0 161 -108 269t-263 108h-348v-1231h-33z" />
<glyph unicode="S" horiz-adv-x="870" d="M100 172l25 16q118 -174 301 -174q135 0 220 74t85 191q0 115 -71 198.5t-238 136.5q-291 90 -291 342q0 143 97 232.5t225 89.5q103 0 184.5 -47t126.5 -148l-31 -16q-76 180 -282 180q-111 0 -198 -76.5t-87 -201.5t63 -201t211 -125q177 -58 251.5 -146t74.5 -216 q0 -132 -96.5 -214.5t-245.5 -82.5q-207 0 -324 188z" />
<glyph unicode="T" horiz-adv-x="942" d="M25 1223v30h893v-30h-431v-1223h-32v1223h-430z" />
<glyph unicode="U" horiz-adv-x="1220" d="M106 508v754h33v-754q0 -244 128.5 -369t342.5 -125q212 0 341.5 125t129.5 369v754h33v-754q0 -134 -39.5 -236.5t-109.5 -164.5t-159.5 -92.5t-195.5 -30.5q-107 0 -196.5 30.5t-159.5 92.5t-109 164.5t-39 236.5z" />
<glyph unicode="V" horiz-adv-x="1157" d="M45 1262h39l496 -1221l495 1221h37l-518 -1262h-29z" />
<glyph unicode="W" horiz-adv-x="1644" d="M45 1262h37l352 -1213l377 1192h33l366 -1192l353 1213h36l-372 -1262h-33l-367 1192l-378 -1192h-31z" />
<glyph unicode="X" horiz-adv-x="991" d="M39 0l432 629l-420 633h39l404 -607l419 607h39l-442 -633l436 -629h-41l-418 602l-411 -602h-37z" />
<glyph unicode="Y" horiz-adv-x="1120" d="M45 1262h41l477 -781l473 781h39l-497 -816v-446h-33v449z" />
<glyph unicode="Z" horiz-adv-x="1007" d="M72 0v31l827 1192h-811v30h852v-32l-827 -1190h827v-31h-868z" />
<glyph unicode="[" horiz-adv-x="657" d="M248 -213v1827h297v-23h-273v-1781h273v-23h-297z" />
<glyph unicode="\" horiz-adv-x="862" d="M-12 1620l22 10l864 -1849l-22 -10z" />
<glyph unicode="]" horiz-adv-x="657" d="M113 -190h272v1781h-272v23h297v-1827h-297v23z" />
<glyph unicode="^" d="M135 221l125 232h29l125 -232l-21 -10l-119 221l-118 -221z" />
<glyph unicode="_" horiz-adv-x="1024" d="M203 -43h618v-23h-618v23z" />
<glyph unicode="`" horiz-adv-x="438" d="M135 739h49l119 -176h-27z" />
<glyph unicode="a" horiz-adv-x="708" d="M72 233q0 125 74.5 196t183.5 71q77 0 134.5 -42t84.5 -112q-6 30 -6 94v47h32v-487h-32v47q0 67 6 94q-63 -157 -234 -157q-103 0 -173 68.5t-70 180.5zM106 240q0 -100 63.5 -165t158.5 -65q87 0 151 63t64 146v45q0 85 -63 147t-152 62q-97 0 -159.5 -64.5 t-62.5 -168.5z" />
<glyph unicode="b" horiz-adv-x="708" d="M133 0v1614h33v-1178q0 -67 -6 -94q63 158 233 158q103 0 173.5 -69t70.5 -181q0 -126 -74.5 -196t-183.5 -70q-77 0 -134.5 41t-84.5 112q6 -30 6 -94v-43h-33zM166 219q0 -85 63 -147t152 -62q97 0 159 64t62 170q0 100 -63 164.5t-158 64.5q-86 0 -150.5 -64 t-64.5 -145v-45z" />
<glyph unicode="c" horiz-adv-x="591" d="M72 233q0 126 73.5 196.5t182.5 70.5q71 0 114.5 -21t75.5 -63l-20 -21q-38 41 -76 59.5t-96 18.5q-91 0 -155.5 -63t-64.5 -164q0 -108 63 -172t159 -64q53 0 91 18t77 60l18 -18q-38 -45 -83.5 -65.5t-113.5 -20.5q-107 0 -176 68t-69 181z" />
<glyph unicode="d" horiz-adv-x="708" d="M72 233q0 125 74.5 196t183.5 71q77 0 134.5 -42t84.5 -112q-6 30 -6 94v1174h32v-1614h-32v47q0 67 6 94q-63 -157 -234 -157q-103 0 -173 68.5t-70 180.5zM106 240q0 -100 63.5 -165t158.5 -65q87 0 151 63t64 146v45q0 85 -63 147t-152 62q-97 0 -159.5 -64.5 t-62.5 -168.5z" />
<glyph unicode="e" horiz-adv-x="620" d="M72 233q0 128 69.5 197.5t177.5 69.5q104 0 163 -67.5t59 -156.5v-30h-435q0 -110 62.5 -173t159.5 -63q105 0 178 92l18 -18q-75 -100 -207 -100q-107 0 -176 68t-69 181zM109 274h395q0 90 -50.5 144.5t-136.5 54.5q-88 0 -142.5 -52.5t-65.5 -146.5z" />
<glyph unicode="f" horiz-adv-x="479" d="M53 -344q98 69 139 167t41 267v361h-163v28h163v602q0 255 110 398t292 143q89 0 153 -27l-8 -28q-67 26 -145 26q-77 0 -142 -29.5t-116.5 -89t-81 -159t-29.5 -228.5v-608h164v-28h-164v-353q0 -189 -49 -297t-147 -170z" />
<glyph unicode="g" horiz-adv-x="647" d="M51 -193q0 81 60.5 135.5t132.5 57.5q-34 5 -66 37l8 20q71 9 117 52q-96 0 -158.5 49t-62.5 135q0 97 62 152t161 55q53 0 111 -21h172v-28h-135q75 -53 75 -150q0 -76 -48.5 -126t-135.5 -64q-46 -55 -123 -70q35 -35 88 -35q109 0 170.5 -57t61.5 -137q0 -87 -71 -142 t-179 -55q-101 0 -170.5 52.5t-69.5 139.5zM86 -193q0 -73 59.5 -119t145.5 -46q94 0 154.5 46t60.5 119q0 72 -52.5 122.5t-148.5 50.5q-98 0 -158.5 -45t-60.5 -128zM117 293q0 -78 54 -119t134 -41q84 0 136.5 44t52.5 116q0 84 -50 132t-139 48q-88 0 -138 -45.5 t-50 -134.5z" />
<glyph unicode="h" horiz-adv-x="714" d="M117 -6q16 60 16 192v1428h33v-1372q0 -88 -10 -156q58 203 141 315q71 99 156 99q64 0 103.5 -45t39.5 -109v-346h-33v330q0 62 -31 99.5t-88 37.5q-153 0 -297 -481z" />
<glyph unicode="i" horiz-adv-x="299" d="M121 651q0 12 8.5 20.5t20.5 8.5t20 -8.5t8 -20.5t-8 -20t-20 -8t-20.5 8t-8.5 20zM133 0v487h33v-487h-33z" />
<glyph unicode="j" horiz-adv-x="305" d="M-41 -344q98 69 139 167t41 267v397h33v-389q0 -189 -49.5 -297t-147.5 -170zM127 651q0 12 8.5 20.5t20.5 8.5t20 -8.5t8 -20.5t-8 -20t-20 -8t-20.5 8t-8.5 20z" />
<glyph unicode="k" horiz-adv-x="581" d="M133 0v1614h33v-1403l299 276h47l-264 -237l272 -250h-49l-248 229l-57 -53v-176h-33z" />
<glyph unicode="l" horiz-adv-x="299" d="M133 0v1614h33v-1614h-33z" />
<glyph unicode="m" horiz-adv-x="1144" d="M117 -6q16 60 16 192v301h33v-245q0 -88 -10 -156q58 203 141 315q71 99 156 99q64 0 103.5 -45t39.5 -109v-104q0 -88 -10 -156q58 203 141 315q71 99 156 99q64 0 103.5 -45t39.5 -109v-346h-33v330q0 62 -31 99.5t-88 37.5q-152 0 -296 -481l-31 8q16 60 16 192v144 q0 62 -31 99.5t-88 37.5q-153 0 -297 -481z" />
<glyph unicode="n" horiz-adv-x="714" d="M117 -6q16 60 16 192v301h33v-245q0 -88 -10 -156q58 203 141 315q71 99 156 99q64 0 103.5 -45t39.5 -109v-346h-33v330q0 62 -31 99.5t-88 37.5q-153 0 -297 -481z" />
<glyph unicode="o" horiz-adv-x="643" d="M72 242q0 122 72 190t180 68t179.5 -68t71.5 -190t-71.5 -190t-179.5 -68t-180 68t-72 190zM106 242q0 -104 60 -168t158 -64t157.5 64t59.5 168t-59.5 167.5t-157.5 63.5t-158 -63.5t-60 -167.5z" />
<glyph unicode="p" horiz-adv-x="708" d="M133 -344v831h33v-51q0 -67 -6 -94q63 158 233 158q103 0 173.5 -69t70.5 -181q0 -126 -74.5 -196t-183.5 -70q-77 0 -134.5 41t-84.5 112q6 -30 6 -94v-387h-33zM166 219q0 -85 63 -147t152 -62q97 0 159 64t62 170q0 100 -63 164.5t-158 64.5q-86 0 -150.5 -64 t-64.5 -145v-45z" />
<glyph unicode="q" horiz-adv-x="708" d="M72 233q0 125 74.5 196t183.5 71q77 0 134.5 -42t84.5 -112q-6 30 -6 94v47h32v-831h-32v391q0 67 6 94q-63 -157 -234 -157q-103 0 -173 68.5t-70 180.5zM106 240q0 -100 63.5 -165t158.5 -65q87 0 151 63t64 146v45q0 85 -63 147t-152 62q-97 0 -159.5 -64.5 t-62.5 -168.5z" />
<glyph unicode="r" horiz-adv-x="415" d="M133 0v487h33v-77q0 -60 -8 -125q35 209 217 215l2 -37q-58 0 -101 -25t-66 -66.5t-33.5 -88t-10.5 -97.5v-186h-33z" />
<glyph unicode="s" horiz-adv-x="458" d="M78 33l18 24q68 -47 129 -47q53 0 87 26t34 68t-28 67.5t-89 43.5q-135 38 -135 143q0 64 45.5 103t110.5 39q76 0 125 -56l-23 -20q-40 49 -104 49q-54 0 -87.5 -30.5t-33.5 -77.5q0 -50 29.5 -79t91.5 -44q131 -34 131 -136q0 -55 -46 -88.5t-110 -33.5q-80 0 -145 49z " />
<glyph unicode="t" horiz-adv-x="466" d="M53 451v28h164v254h33v-254h164v-28h-164v-451h-33v451h-164z" />
<glyph unicode="u" horiz-adv-x="714" d="M119 137v342h33v-325q0 -62 30.5 -100t87.5 -38q153 0 297 482l31 -9q-16 -63 -16 -192v-299h-33v244q0 87 10 155q-58 -203 -141 -315q-73 -98 -156 -98q-64 0 -103.5 44.5t-39.5 108.5z" />
<glyph unicode="v" horiz-adv-x="569" d="M61 487h39l189 -448l188 448h37l-211 -487h-29z" />
<glyph unicode="w" horiz-adv-x="899" d="M61 487h37l170 -446l164 438h43l166 -438l168 446h35l-189 -487h-28l-174 446l-172 -446h-29z" />
<glyph unicode="x" horiz-adv-x="487" d="M45 0l178 246l-170 241h41l150 -219l162 219h36l-180 -241l178 -246h-41l-157 223l-160 -223h-37z" />
<glyph unicode="y" horiz-adv-x="552" d="M45 487h39l188 -448l189 448h37l-213 -487q-76 -172 -207 -360l-27 20q61 85 120.5 184t84.5 160z" />
<glyph unicode="z" horiz-adv-x="516" d="M63 0v29l338 422h-325v28h364v-28l-338 -422h340v-29h-379z" />
<glyph unicode="{" horiz-adv-x="763" d="M197 688v25q72 10 116 53.5t43 126.5l-10 412q-3 161 66 240.5t237 88.5l2 -20q-154 -4 -217.5 -77t-60.5 -206l10 -426q1 -87 -41.5 -140t-120.5 -65q78 -12 120.5 -65t41.5 -139l-10 -426q-3 -133 61 -206.5t217 -76.5l-2 -20q-169 9 -237.5 88t-65.5 241l10 412 q1 82 -43.5 126t-115.5 54z" />
<glyph unicode="|" horiz-adv-x="352" d="M164 -401v2048h24v-2048h-24z" />
<glyph unicode="}" horiz-adv-x="763" d="M113 -213q153 3 217 76.5t61 206.5l-10 426q-1 86 41.5 139t120.5 65q-78 12 -120.5 65t-41.5 140l10 426q3 133 -60.5 206t-217.5 77l2 20q167 -9 236.5 -89t66.5 -240l-10 -412q-1 -83 43 -126.5t116 -53.5v-25q-71 -10 -115.5 -54t-43.5 -126l10 -412 q3 -161 -66 -240.5t-237 -88.5z" />
<glyph unicode="~" horiz-adv-x="731" d="M80 229q20 55 58.5 87t80.5 32q45 0 80 -18.5t76 -59.5q40 -40 70.5 -57.5t64.5 -17.5q75 0 117 102l24 -10q-20 -55 -58.5 -87t-80.5 -32q-43 0 -79 18t-77 60q-41 43 -68.5 59.5t-66.5 16.5q-77 0 -117 -103z" />
<glyph unicode="&#xa5;" horiz-adv-x="520" d="M74 479h37l151 -248l150 248h34l-147 -241h121v-23h-135l-9 -14v-47h144v-23h-144v-131h-32v131h-144v23h144v49l-8 12h-136v23h121z" />
<glyph unicode="&#xad;" horiz-adv-x="722" d="M203 291v22h317v-22h-317z" />
<glyph unicode="&#x2000;" horiz-adv-x="823" />
<glyph unicode="&#x2001;" horiz-adv-x="1647" />
<glyph unicode="&#x2002;" horiz-adv-x="823" />
<glyph unicode="&#x2003;" horiz-adv-x="1647" />
<glyph unicode="&#x2004;" horiz-adv-x="549" />
<glyph unicode="&#x2005;" horiz-adv-x="411" />
<glyph unicode="&#x2006;" horiz-adv-x="274" />
<glyph unicode="&#x2007;" horiz-adv-x="274" />
<glyph unicode="&#x2008;" horiz-adv-x="205" />
<glyph unicode="&#x2009;" horiz-adv-x="329" />
<glyph unicode="&#x200a;" horiz-adv-x="91" />
<glyph unicode="&#x2010;" horiz-adv-x="722" d="M203 291v22h317v-22h-317z" />
<glyph unicode="&#x2011;" horiz-adv-x="722" d="M203 291v22h317v-22h-317z" />
<glyph unicode="&#x2012;" horiz-adv-x="722" d="M203 291v22h317v-22h-317z" />
<glyph unicode="&#x2013;" horiz-adv-x="1429" d="M203 291v22h1024v-22h-1024z" />
<glyph unicode="&#x2014;" horiz-adv-x="2453" d="M203 291v22h2048v-22h-2048z" />
<glyph unicode="&#x2018;" horiz-adv-x="172" d="M33 948q15 70 44.5 182.5t43.5 151.5l22 -6q-42 -146 -71 -334z" />
<glyph unicode="&#x2019;" horiz-adv-x="172" d="M29 948q42 146 71 334l39 -6q-15 -70 -44.5 -182.5t-43.5 -151.5z" />
<glyph unicode="&#x201c;" horiz-adv-x="274" d="M33 948q15 70 44.5 182.5t43.5 151.5l22 -6q-42 -146 -71 -334zM135 948q15 70 44.5 182.5t43.5 151.5l23 -6q-44 -154 -72 -334z" />
<glyph unicode="&#x201d;" horiz-adv-x="274" d="M29 948q42 146 71 334l39 -6q-15 -70 -44.5 -182.5t-43.5 -151.5zM131 948q44 154 72 334l39 -6q-15 -70 -44.5 -182.5t-43.5 -151.5z" />
<glyph unicode="&#x202f;" horiz-adv-x="329" />
<glyph unicode="&#x205f;" horiz-adv-x="411" />
<glyph unicode="&#x25fc;" horiz-adv-x="491" d="M0 0v492h492v-492h-492z" />
</font>
</defs>
</svg>
